<svg xmlns="http://www.w3.org/2000/svg" width="400" height="460" viewBox="0 0 400 460">
  <defs>
    <linearGradient id="bg" x1="0%" y1="0%" x2="100%" y2="100%"><stop offset="0%" style="stop-color:#F0EDE5"/><stop offset="100%" style="stop-color:#E6E2D8"/></linearGradient>
    <linearGradient id="acc" x1="0%" y1="0%" x2="100%" y2="100%"><stop offset="0%" style="stop-color:#C94B0C"/><stop offset="100%" style="stop-color:#E8622A"/></linearGradient>
  </defs>
  <rect width="400" height="460" fill="url(#bg)"/>
  <pattern id="gr" width="30" height="30" patternUnits="userSpaceOnUse"><path d="M 30 0 L 0 0 0 30" fill="none" stroke="rgba(201,75,12,0.07)" stroke-width="1"/></pattern>
  <rect width="400" height="460" fill="url(#gr)"/>
  <circle cx="200" cy="180" r="110" fill="url(#acc)" opacity="0.1"/>
  <circle cx="200" cy="180" r="85" fill="url(#acc)" opacity="0.1"/>
  <circle cx="200" cy="168" r="62" fill="url(#acc)" opacity="0.18"/>
  <!-- Silhouette head -->
  <ellipse cx="200" cy="148" rx="38" ry="42" fill="rgba(201,75,12,0.5)"/>
  <!-- Silhouette body -->
  <ellipse cx="200" cy="240" rx="58" ry="45" fill="rgba(201,75,12,0.3)"/>
  <text x="200" y="310" font-family="Georgia,serif" font-size="13" fill="#C94B0C" opacity="0.5" text-anchor="middle" letter-spacing="3">SOUFIANE ASRIH</text>
  <rect x="0" y="360" width="400" height="100" fill="rgba(11,11,9,0.82)"/>
  <text x="200" y="398" font-family="Georgia,serif" font-size="20" font-weight="600" fill="white" text-anchor="middle">Soufiane Asrih</text>
  <text x="200" y="422" font-family="monospace" font-size="10" fill="rgba(255,255,255,0.6)" text-anchor="middle" letter-spacing="2.5">FRONTEND ARCHITECT · SCRUM MASTER</text>
  <!-- Corner accents -->
  <polyline points="10,10 10,30 30,30" fill="none" stroke="#C94B0C" stroke-width="2" opacity="0.5"/>
  <polyline points="390,10 390,30 370,30" fill="none" stroke="#C94B0C" stroke-width="2" opacity="0.5"/>
  <polyline points="10,450 10,430 30,430" fill="none" stroke="#C94B0C" stroke-width="2" opacity="0.5"/>
  <polyline points="390,450 390,430 370,430" fill="none" stroke="#C94B0C" stroke-width="2" opacity="0.5"/>
</svg>
