<svg xmlns="http://www.w3.org/2000/svg" width="800" height="400" viewBox="0 0 800 400">
  <defs>
    <linearGradient id="a1" x1="0%" y1="0%" x2="100%" y2="100%"><stop offset="0%" style="stop-color:#1a0a05"/><stop offset="100%" style="stop-color:#2d1206"/></linearGradient>
    <linearGradient id="a1c" x1="0%" y1="0%" x2="100%" y2="100%"><stop offset="0%" style="stop-color:#C94B0C"/><stop offset="100%" style="stop-color:#7A2C06"/></linearGradient>
  </defs>
  <rect width="800" height="400" fill="url(#a1)"/>
  <circle cx="650" cy="60" r="160" fill="rgba(201,75,12,0.07)"/>
  <circle cx="700" cy="360" r="120" fill="rgba(201,75,12,0.05)"/>
  <rect x="420" y="70" width="330" height="210" rx="16" fill="url(#a1c)"/>
  <rect x="420" y="70" width="330" height="210" rx="16" fill="none" stroke="rgba(255,255,255,0.12)" stroke-width="1"/>
  <rect x="452" y="130" width="44" height="34" rx="6" fill="#FFD700" opacity="0.85"/>
  <line x1="452" y1="147" x2="496" y2="147" stroke="#B8A600" stroke-width="1"/>
  <line x1="474" y1="130" x2="474" y2="164" stroke="#B8A600" stroke-width="1"/>
  <text x="450" y="198" font-family="monospace" font-size="16" fill="white" letter-spacing="3">4532 ···· ···· 7891</text>
  <text x="450" y="262" font-family="monospace" font-size="11" fill="rgba(255,255,255,0.7)">SOUFIANE ASRIH</text>
  <text x="40" y="130" font-family="Georgia,serif" font-size="28" font-weight="700" fill="white">Enhance Your Angular</text>
  <text x="40" y="166" font-family="Georgia,serif" font-size="28" font-weight="700" fill="white">Projects with</text>
  <text x="40" y="206" font-family="Georgia,serif" font-size="22" font-weight="700" fill="#C94B0C">ng-payment-card-form</text>
  <rect x="40" y="240" width="80" height="24" rx="12" fill="rgba(201,75,12,0.25)" stroke="rgba(201,75,12,0.5)" stroke-width="1"/>
  <text x="80" y="256" font-family="monospace" font-size="10" fill="#E8622A" text-anchor="middle">Angular</text>
  <rect x="132" y="240" width="60" height="24" rx="12" fill="rgba(203,56,55,0.2)" stroke="rgba(203,56,55,0.4)" stroke-width="1"/>
  <text x="162" y="256" font-family="monospace" font-size="10" fill="#CB3837" text-anchor="middle">npm</text>
  <text x="40" y="310" font-family="monospace" font-size="11" fill="rgba(255,255,255,0.4)">Aug 11, 2024 · 3 min read</text>
  <circle cx="56" cy="360" r="18" fill="#C94B0C"/>
  <text x="56" y="366" font-family="Georgia,serif" font-size="13" font-weight="700" fill="white" text-anchor="middle">SA</text>
  <text x="82" y="363" font-family="sans-serif" font-size="12" fill="rgba(255,255,255,0.65)">Asrihsoufiane · Medium</text>
</svg>