<svg xmlns="http://www.w3.org/2000/svg" width="560" height="320" viewBox="0 0 560 320"><rect width="560" height="320" fill="#0d0c0a"/><rect x="60" y="30" width="380" height="220" rx="8" fill="#1c1c1c" stroke="#C94B0C" stroke-width="2"/><polyline points="60,54 60,30 84,30" fill="none" stroke="#C94B0C" stroke-width="3"/><polyline points="416,30 440,30 440,54" fill="none" stroke="#C94B0C" stroke-width="3"/><polyline points="60,226 60,250 84,250" fill="none" stroke="#C94B0C" stroke-width="3"/><polyline points="416,250 440,250 440,226" fill="none" stroke="#C94B0C" stroke-width="3"/><rect x="80" y="60" width="340" height="160" rx="4" fill="#2a2a2a"/><rect x="100" y="80" width="180" height="14" rx="3" fill="#C94B0C" opacity="0.6"/><rect x="100" y="104" width="260" height="7" rx="2" fill="#444"/><rect x="100" y="120" width="220" height="7" rx="2" fill="#444"/><rect x="100" y="136" width="240" height="7" rx="2" fill="#444"/><rect x="100" y="152" width="200" height="7" rx="2" fill="#444"/><circle cx="480" cy="140" r="34" fill="#FFBD2E" opacity="0.9"/><text x="480" y="150" font-family="sans-serif" font-size="22" text-anchor="middle">📸</text><text x="280" y="295" font-family="monospace" font-size="12" fill="#C94B0C" text-anchor="middle">ng-capture-screenshots</text></svg>